<svg version="1.1" id="Layer_1" xmlns="http://www.w3.org/2000/svg" xmlns:xlink="http://www.w3.org/1999/xlink" x="0px" y="0px"
	 width="100%" viewBox="0 0 784 1264" enable-background="new 0 0 784 1264" xml:space="preserve">
<path fill="#1F2937" opacity="1.000000" stroke="none"
	d="
M62.512989,1199.475586 
	C48.678722,1183.619629 41.989323,1165.479736 41.991829,1144.787964 
	C42.012489,974.138184 42.003418,803.488403 42.003345,632.838623 
	C42.003345,630.844116 42.003345,628.849609 42.003345,626.452759 
	C36.033245,625.804382 34.932835,621.795837 34.949043,616.592590 
	C35.049240,584.429504 35.038708,552.265686 34.958782,520.102478 
	C34.946255,515.061096 36.125484,511.226410 41.897141,510.616241 
	C41.897141,504.186249 41.897141,498.034912 41.897141,491.440796 
	C36.016685,490.855896 34.937374,486.818573 34.952454,481.628357 
	C35.045887,449.465118 35.037075,417.301422 34.960304,385.138123 
	C34.948296,380.107239 36.085461,376.235748 41.892899,375.623901 
	C41.892899,359.209808 41.892899,343.059326 41.892899,326.445190 
	C35.616604,325.864471 34.929638,321.404266 34.956718,316.149384 
	C35.061485,295.818573 35.027729,275.486877 34.978985,255.155670 
	C34.967171,250.226776 35.793140,246.055328 42.003342,245.755539 
	C42.003342,243.554947 42.003342,241.732071 42.003345,239.909195 
	C42.003433,197.246750 41.980721,154.584274 42.009834,111.921844 
	C42.040863,66.452278 77.385742,31.014746 122.786629,31.008974 
	C302.268890,30.986153 481.751129,30.985888 661.233398,31.009165 
	C706.624329,31.015051 741.977112,66.461510 741.988647,111.941795 
	C742.014221,212.765167 741.996765,313.588531 741.996887,414.411896 
	C741.996887,416.401215 741.996887,418.390564 741.996887,420.309326 
	C748.664612,422.319519 749.992981,424.095917 749.994629,431.060699 
	C750.005676,477.722748 750.006348,524.384827 749.993774,571.046875 
	C749.991882,577.940247 748.500549,579.886353 741.996887,581.359558 
	C741.996887,583.413086 741.996887,585.555847 741.996887,587.698547 
	C741.996704,773.346863 742.002014,958.995117 741.992432,1144.643433 
	C741.990356,1184.281860 716.147644,1216.337280 677.508179,1224.362549 
	C672.011902,1225.504150 666.274292,1225.932495 660.648132,1225.934937 
	C481.499176,1226.014282 302.350189,1226.003418 123.201225,1225.995972 
	C99.261024,1225.994995 79.100182,1217.240845 62.512989,1199.475586 
M648.499756,66.000343 
	C473.522705,66.000397 298.545685,65.996025 123.568642,66.005142 
	C96.431679,66.006554 77.004868,85.473244 77.004395,112.657608 
	C76.998466,456.613373 76.997910,800.569153 77.005600,1144.524902 
	C77.006203,1171.416992 96.477524,1190.991089 123.251213,1190.993042 
	C302.394836,1191.005981 481.538483,1191.001831 660.682129,1190.979370 
	C663.337341,1190.979004 666.035889,1190.921509 668.640991,1190.469116 
	C691.909485,1186.428223 706.993896,1168.373535 706.994629,1144.591553 
	C707.002625,883.791748 706.999817,622.991943 706.999878,362.192139 
	C706.999878,278.702881 707.016479,195.213608 706.988403,111.724342 
	C706.980774,88.867325 691.932556,70.632973 669.419739,66.810516 
	C662.921143,65.707130 656.147156,66.225487 648.499756,66.000343 
z"/>
</svg>